<svg version="1.1" id="Layer_1" xmlns="http://www.w3.org/2000/svg" xmlns:xlink="http://www.w3.org/1999/xlink" x="0px" y="0px"
	 width="100%" viewBox="0 0 4500 1466" enable-background="new 0 0 4500 1466" xml:space="preserve">
<path fill="#000000" opacity="1.000000" stroke="none" 
	d="
M2950.000000,1468.000000 
	C1966.666626,1468.000000 984.333313,1468.000000 2.000000,1468.000000 
	C2.000000,979.333313 2.000000,490.666656 2.000000,2.000000 
	C1502.000000,2.000000 3002.000000,2.000000 4502.000000,2.000000 
	C4502.000000,490.666656 4502.000000,979.333313 4502.000000,1468.000000 
	C3985.000000,1468.000000 3468.000000,1468.000000 2950.000000,1468.000000 
M501.196777,486.415649 
	C500.615082,486.752563 500.400726,487.248322 499.625732,488.905243 
	C499.219940,489.708313 498.814117,490.511383 497.430573,492.054657 
	C485.620392,504.482666 474.042450,517.142151 461.943695,529.282593 
	C445.224457,546.059387 425.981537,559.651917 405.516388,571.411804 
	C392.619690,578.822693 379.203552,585.329590 364.520203,592.126831 
	C327.815247,607.269653 289.378754,613.413513 249.914474,613.598999 
	C232.761765,613.679626 216.104660,616.188660 200.229477,622.392334 
	C191.116730,625.953369 182.662643,631.199951 172.525070,635.979370 
	C169.629547,637.615417 166.564651,639.012329 163.865128,640.924988 
	C140.899139,657.197449 123.106133,677.891724 110.578949,703.157959 
	C95.553871,733.462280 92.622757,765.466309 97.418533,798.386536 
	C99.969917,815.900330 106.431358,832.122803 114.756012,847.883606 
	C122.340958,862.243958 132.330566,874.531799 143.495636,885.807373 
	C156.173965,898.611328 171.132675,908.645630 187.661560,916.102905 
	C216.922852,929.304443 247.428268,933.507324 279.142181,928.465576 
	C303.799225,924.545654 325.638519,914.402588 346.406403,900.488037 
	C358.429199,892.432861 367.164856,881.503906 376.794067,871.557617 
	C385.200439,862.874268 390.089355,850.785583 397.574066,839.286316 
	C401.689575,826.432617 407.040771,813.817810 409.585266,800.660339 
	C412.323029,786.503479 412.822998,771.858337 413.585571,757.388611 
	C414.602814,738.087341 419.121124,719.500732 424.548523,701.155701 
	C428.283417,688.531433 433.453949,676.331909 439.171906,663.236084 
	C445.973785,650.672302 451.881775,637.515442 459.748566,625.658142 
	C481.532837,592.823547 507.718018,563.893127 539.384521,540.143738 
	C541.329834,538.684814 542.552246,536.262024 545.551208,534.101501 
	C548.201233,532.816711 551.112122,531.891296 553.458496,530.188110 
	C567.458618,520.025452 582.487000,511.637543 598.316406,504.817780 
	C611.638123,499.078461 625.062805,493.313416 638.918152,489.141510 
	C658.518677,483.239716 678.466431,478.307800 699.172852,477.899475 
	C708.788452,477.709839 718.402771,477.455444 729.393372,477.587402 
	C730.319031,477.441223 731.244751,477.295044 733.053528,477.325958 
	C733.658508,477.108490 734.081787,476.701843 736.060669,476.274475 
	C774.256653,474.067871 806.372437,458.117401 833.679626,432.123230 
	C843.353027,422.914917 852.725342,413.107391 859.355286,399.545807 
	C862.187012,394.480804 865.438110,389.601776 867.780457,384.319763 
	C880.156311,356.411621 884.451294,327.421509 880.489929,296.950684 
	C875.852295,261.277710 860.495422,231.163422 835.309937,206.001602 
	C807.722534,178.440109 774.250122,163.047333 735.275818,160.397583 
	C702.013123,158.136154 670.582092,164.368362 640.713440,182.699692 
	C588.700623,216.313507 563.260742,264.065155 563.856079,327.647095 
	C562.429504,339.102142 561.800903,350.724762 559.436584,361.982880 
	C549.829407,407.728577 529.846619,448.801422 501.196777,486.415649 
M971.897827,919.934387 
	C987.619629,910.116699 1002.639099,898.862976 1019.200989,890.762878 
	C1061.101807,870.269775 1105.477295,859.400391 1152.516479,860.186768 
	C1176.263428,860.583862 1198.971802,855.245667 1221.514160,843.866394 
	C1252.077271,828.491272 1275.556519,805.826172 1291.469360,775.501587 
	C1310.140991,739.919434 1314.430420,702.450317 1304.865234,663.567078 
	C1295.094116,623.847046 1272.573975,592.898071 1238.594360,570.252808 
	C1198.314697,543.408875 1154.432739,537.590881 1108.115967,549.204834 
	C1087.081177,554.479309 1068.499512,564.951111 1051.366943,578.675964 
	C1033.908691,592.661682 1020.525879,609.540771 1009.898743,628.808960 
	C1006.286621,635.358093 1004.277466,642.791382 1000.468384,650.826965 
	C997.732849,664.428894 994.429138,677.948608 992.443176,691.659119 
	C990.880798,702.445679 991.435425,713.523682 990.199890,724.375488 
	C985.074280,769.395142 968.892212,810.413818 944.258789,848.210327 
	C937.757751,858.185059 930.659546,867.770447 922.693176,878.292419 
	C908.651489,895.157166 893.458008,910.853821 876.516968,924.871155 
	C846.323181,949.853943 812.892517,969.015259 775.860474,981.922424 
	C753.857544,989.591431 731.127075,993.735291 706.218384,996.355408 
	C696.105530,996.471069 685.992615,996.586792 674.862732,996.492920 
	C674.342651,996.917480 673.822632,997.342102 671.572266,997.647827 
	C668.253845,997.796387 664.911072,997.737976 661.620911,998.125977 
	C634.062073,1001.376709 608.936035,1011.158752 586.896240,1027.902954 
	C571.513794,1039.589355 557.574951,1052.960693 546.823120,1070.803955 
	C528.853577,1101.259033 520.087769,1133.736206 523.534546,1169.404785 
	C526.447937,1199.554077 536.595154,1226.655396 554.527283,1250.935303 
	C569.808411,1271.625610 589.194824,1287.760498 612.238892,1298.697510 
	C639.256409,1311.520264 667.719055,1316.576904 698.028809,1312.758057 
	C713.153015,1310.852417 727.521118,1307.675659 741.512085,1302.126465 
	C754.993652,1296.778931 768.005676,1290.561646 779.750732,1279.684692 
	C782.637024,1277.466431 785.686340,1275.428955 788.382019,1272.999146 
	C801.580627,1261.102661 812.352478,1247.173584 820.784729,1231.633301 
	C829.516785,1215.540283 836.363342,1198.632202 838.022034,1180.096802 
	C839.317017,1165.625854 840.491821,1151.144165 841.792236,1136.673828 
	C842.412292,1129.774048 843.200500,1122.889526 844.547729,1114.576538 
	C844.975220,1112.985474 845.518555,1111.415405 845.812805,1109.799927 
	C850.789917,1082.471924 861.016357,1056.921997 873.960693,1032.637817 
	C890.575989,1001.466675 911.555664,973.320129 937.421265,949.020569 
	C943.329529,943.469971 948.964661,937.615234 955.053528,932.274414 
	C959.972961,927.959351 965.385986,924.207031 971.897827,919.934387 
M589.807495,891.702209 
	C593.135132,890.267212 596.515869,888.943237 599.782166,887.380127 
	C636.813049,869.659058 675.940857,860.652222 716.895325,860.468811 
	C736.168945,860.382385 754.945129,858.501465 773.162781,852.190491 
	C789.505066,846.529053 804.822693,838.859558 819.850464,827.966919 
	C836.669312,814.158386 850.922913,798.388794 861.796936,779.214233 
	C880.853333,745.611023 886.176636,709.752869 879.321411,672.510986 
	C871.393555,629.442627 848.482117,595.028015 811.975281,570.643311 
	C776.500366,546.947815 737.377319,538.805176 695.102112,546.284607 
	C657.688354,552.903931 627.026428,571.258179 602.117676,599.437744 
	C596.081970,606.265991 591.576904,614.447266 585.353394,623.024414 
	C583.433960,626.887939 581.509766,630.749084 579.595886,634.615234 
	C569.864685,654.272400 564.710815,675.224304 564.510254,696.997803 
	C564.221863,728.313171 558.319702,758.470581 547.118774,787.459839 
	C540.451904,804.714294 531.687012,821.158081 522.747070,838.717529 
	C512.717896,853.103882 503.722504,868.370239 492.407776,881.662292 
	C476.931244,899.843506 459.769958,916.495850 440.739471,931.265076 
	C408.884430,955.987366 374.071259,974.686523 335.292175,985.648682 
	C321.029114,989.680542 306.359680,992.274902 290.014679,995.566528 
	C278.372742,995.802246 266.720795,995.818237 255.092148,996.346375 
	C246.491318,996.737000 237.804718,997.148804 229.356857,998.667053 
	C193.039307,1005.193665 161.834015,1021.042542 136.587753,1048.660889 
	C103.158386,1085.231323 90.946648,1128.381348 96.558990,1176.604614 
	C100.759819,1212.699707 117.050941,1243.599243 143.012161,1269.139404 
	C172.207489,1297.861206 207.683777,1312.521851 248.331161,1314.109009 
	C261.126953,1314.608643 274.351318,1313.892212 286.827118,1311.186035 
	C350.754211,1297.319092 399.083099,1247.430176 409.850739,1183.720093 
	C413.592407,1161.581299 414.143433,1138.903198 416.748230,1115.867798 
	C417.119324,1115.367310 417.184875,1114.829712 417.591125,1112.934937 
	C417.597992,1111.957520 417.604828,1110.980225 418.213165,1108.553833 
	C418.878479,1105.987793 419.635803,1103.441650 420.195007,1100.852661 
	C425.909210,1074.397217 436.705444,1049.773438 449.490143,1026.254150 
	C460.861633,1005.334717 475.423767,986.310486 491.139404,968.284729 
	C507.769196,949.210327 527.020447,932.874634 546.661499,917.225647 
	C559.280884,907.171265 573.527588,898.838745 589.807495,891.702209 
M3394.762207,684.232971 
	C3409.910645,700.046265 3425.008789,715.908508 3440.220215,731.661255 
	C3461.662109,753.866577 3483.189209,775.989746 3504.678223,798.149841 
	C3537.321777,831.812744 3569.848633,865.590393 3602.726318,899.023254 
	C3607.834961,904.218018 3609.857666,909.358582 3609.812500,916.580750 
	C3609.520752,963.238464 3609.740479,1009.899170 3609.603027,1056.558350 
	C3609.572754,1066.827637 3608.720215,1077.092773 3608.395508,1087.364624 
	C3608.337158,1089.213013 3609.007568,1091.084351 3609.364258,1093.071533 
	C3657.098389,1093.071533 3704.242920,1093.071533 3752.223145,1093.071533 
	C3750.331543,855.523132 3753.465820,618.567444 3752.007080,380.332642 
	C3747.245361,380.332642 3743.681641,380.332642 3740.117920,380.332642 
	C3700.790527,380.332642 3661.462891,380.281952 3622.135986,380.407318 
	C3617.980225,380.420532 3612.813477,380.216858 3610.028564,382.473938 
	C3608.159180,383.988678 3609.666260,389.670105 3609.662354,393.487152 
	C3609.662109,393.820435 3609.662842,394.153717 3609.662842,394.487000 
	C3609.662598,498.137817 3609.667725,601.788635 3609.615234,705.439453 
	C3609.614258,707.113281 3608.910156,708.786743 3608.534180,710.460388 
	C3607.716553,710.961121 3606.898926,711.461853 3606.081299,711.962524 
	C3603.924805,709.005981 3602.045898,705.789856 3599.564697,703.136780 
	C3587.092041,689.798889 3574.588867,676.484802 3561.858154,663.394043 
	C3541.965576,642.938721 3521.776367,622.771790 3501.906494,602.294678 
	C3478.782227,578.464111 3455.932617,554.366882 3432.843506,530.501892 
	C3402.313965,498.946106 3371.614502,467.554901 3341.093750,435.990875 
	C3325.387939,419.748322 3309.904053,403.291382 3294.336670,386.915466 
	C3290.257080,382.624054 3285.550293,380.240662 3279.381348,380.266602 
	C3246.053711,380.406799 3212.725098,380.315521 3179.396973,380.372894 
	C3177.159912,380.376770 3174.923828,380.947174 3172.394043,381.294312 
	C3172.394043,618.818359 3172.394043,855.852417 3172.394043,1093.035400 
	C3220.265625,1093.035400 3267.403564,1093.035400 3314.993164,1093.035400 
	C3314.993164,929.160583 3314.993164,765.918518 3314.993164,601.552002 
	C3334.449219,621.739380 3353.057861,641.052551 3371.672852,660.359619 
	C3379.026611,667.986938 3386.394775,675.600647 3394.762207,684.232971 
M2152.333496,403.948334 
	C2152.875977,397.485748 2148.219238,395.793121 2143.460938,393.693329 
	C2125.724121,385.866119 2106.881348,381.940643 2088.115967,377.835510 
	C2067.030029,373.222748 2045.632202,370.828125 2024.042969,370.215790 
	C1988.120850,369.196930 1952.144531,368.270996 1916.399048,372.491089 
	C1876.090576,377.249878 1836.926636,386.619232 1799.382446,402.815765 
	C1756.045654,421.511139 1717.981934,447.317505 1685.701782,481.736542 
	C1658.072632,511.196411 1637.015625,544.916382 1622.554443,582.441345 
	C1614.961914,602.142700 1609.107422,622.640137 1604.077393,643.172302 
	C1596.955200,672.244690 1595.660278,702.180176 1594.536133,731.966003 
	C1593.999756,746.177490 1595.230225,760.508606 1596.435059,774.719910 
	C1598.056519,793.846130 1599.278809,813.119202 1602.730469,831.952087 
	C1608.594604,863.948730 1618.185303,894.919312 1632.271484,924.446960 
	C1645.085449,951.307800 1660.984741,976.138977 1680.890381,998.117249 
	C1704.477661,1024.160278 1732.324585,1045.139771 1763.239624,1061.816895 
	C1794.129150,1078.480347 1827.207031,1089.320557 1861.548340,1096.032837 
	C1876.127808,1098.882324 1891.035400,1100.171631 1905.841553,1101.711792 
	C1921.291504,1103.318970 1936.781006,1105.087646 1952.286133,1105.476562 
	C1968.869873,1105.892456 1985.528931,1105.321289 2002.087402,1104.190552 
	C2020.557373,1102.929199 2039.030762,1101.109497 2057.353027,1098.486450 
	C2072.061523,1096.380615 2086.646484,1093.126709 2101.108398,1089.645020 
	C2124.662109,1083.974731 2147.662842,1076.576172 2169.118896,1065.496704 
	C2171.109619,1041.279175 2170.157715,737.988159 2168.072754,730.637329 
	C2123.690430,730.637329 2079.280518,730.637329 2033.976562,730.637329 
	C2033.976562,812.799866 2033.976562,893.996033 2033.976562,975.355896 
	C2027.791870,977.162781 2022.480225,979.260559 2016.970093,980.228943 
	C1994.432983,984.190002 1971.925537,986.274902 1948.811157,984.677246 
	C1918.003662,982.547913 1888.507935,976.688538 1860.263428,964.060242 
	C1810.682983,941.892517 1778.471191,904.093933 1759.548584,853.946777 
	C1753.555054,838.062927 1749.542480,821.719360 1746.478027,805.060913 
	C1742.512817,783.505859 1741.407837,761.666687 1740.681152,739.889465 
	C1740.232056,726.432373 1742.624146,712.885986 1743.651245,699.372925 
	C1746.267822,664.950623 1754.781128,632.132446 1770.558960,601.352356 
	C1779.557129,583.798767 1791.174927,567.947998 1805.344604,554.343201 
	C1834.633057,526.221924 1870.222900,509.127045 1909.440552,500.773895 
	C1950.810669,491.962280 1992.877441,491.514801 2035.045532,495.538300 
	C2070.388184,498.910614 2104.081055,507.920135 2136.613281,521.902283 
	C2140.910645,523.749390 2145.938965,523.895752 2152.339844,525.170471 
	C2152.339844,484.176971 2152.339844,444.974457 2152.333496,403.948334 
M4064.324951,970.999878 
	C4064.324951,1011.536072 4064.324951,1052.072266 4064.324951,1092.528809 
	C4076.272217,1094.589355 4200.099121,1094.076904 4207.698242,1091.778687 
	C4207.698242,896.864868 4207.698242,701.711426 4207.698242,505.564514 
	C4279.919922,505.564514 4351.363281,505.564514 4422.945801,505.564514 
	C4422.945801,463.469940 4422.945801,422.375092 4422.945801,380.325378 
	C4418.636230,380.325378 4415.047852,380.325348 4411.459473,380.325348 
	C4227.828125,380.325348 4044.196533,380.325348 3860.565186,380.325775 
	C3858.232422,380.325775 3855.899414,380.343933 3853.566650,380.332397 
	C3849.445312,380.312042 3847.740967,382.143860 3847.772949,386.456024 
	C3848.048828,423.769470 3848.152588,461.084229 3848.352051,498.398315 
	C3848.364258,500.615204 3848.762207,502.830017 3849.082275,506.074280 
	C3921.037598,506.074280 3992.468506,506.074280 4064.324951,506.074280 
	C4064.324951,661.112244 4064.324951,815.056030 4064.324951,970.999878 
M2323.662598,1020.999878 
	C2323.662598,1044.911987 2323.662598,1068.823975 2323.662598,1093.090454 
	C2466.656982,1093.090454 2608.749756,1093.090454 2750.768555,1093.090454 
	C2752.598389,1078.697144 2752.024414,976.183350 2749.910889,968.339355 
	C2655.892334,968.075562 2561.619629,970.910583 2466.329102,969.281067 
	C2466.329102,772.858398 2466.329102,577.427490 2466.329102,382.313232 
	C2456.898926,379.464417 2331.550537,379.674347 2323.662598,382.482422 
	C2323.662598,594.490295 2323.662598,806.745056 2323.662598,1020.999878 
M3007.675293,1037.000122 
	C3007.675293,818.760925 3007.675293,600.521729 3007.675293,382.522217 
	C2999.783447,379.694946 2873.624756,379.417450 2865.049072,381.986237 
	C2865.049072,619.027222 2865.049072,856.083374 2865.049072,1093.079468 
	C2890.375000,1095.180420 3000.099609,1094.204590 3007.675293,1091.672729 
	C3007.675293,1074.260376 3007.675293,1056.630371 3007.675293,1037.000122 
M407.794098,279.392731 
	C399.627167,248.049362 383.719330,221.533905 359.459015,199.844360 
	C341.540283,183.824432 321.227386,172.213287 298.232819,165.930908 
	C261.194458,155.811569 224.491714,157.662323 189.208481,173.287811 
	C159.931076,186.253586 136.361176,206.580505 119.609009,233.904251 
	C92.156189,278.681335 87.285431,326.401306 106.120132,375.327667 
	C125.527992,425.742859 162.533371,457.630035 214.643127,472.184204 
	C229.327209,476.285431 244.184631,476.051208 259.148621,476.412933 
	C282.384003,476.974579 303.829681,470.465271 324.296814,460.465729 
	C355.034332,445.448395 378.304352,422.630768 394.248474,392.184967 
	C412.792389,356.774689 416.902802,319.734253 407.794098,279.392731 
M993.664612,297.069885 
	C990.203735,319.111389 992.325867,340.903229 998.284973,362.132568 
	C1006.064026,389.845947 1020.999329,413.346283 1041.799438,433.499390 
	C1062.970337,454.011963 1087.976440,467.446106 1116.312866,473.201935 
	C1144.099731,478.846191 1171.983276,478.424011 1199.788330,469.034332 
	C1220.750977,461.955322 1239.954834,452.279236 1255.712158,437.496826 
	C1298.319092,397.525757 1316.638428,348.682983 1306.536377,290.016205 
	C1299.916016,251.568695 1281.388428,220.437698 1251.510620,195.897629 
	C1224.261353,173.516434 1193.092041,161.512970 1157.571533,160.129471 
	C1130.727539,159.083923 1105.428467,164.109802 1081.364380,175.634003 
	C1057.533569,187.046509 1037.899170,203.682968 1022.380798,225.023224 
	C1009.742371,242.402954 1000.911072,261.620911 996.180359,282.638733 
	C995.236267,286.833069 994.571350,291.090302 993.664612,297.069885 
M1122.066650,1311.603760 
	C1131.282227,1312.461670 1140.495239,1313.351318 1149.716064,1314.148193 
	C1151.358398,1314.290161 1153.044922,1314.144653 1154.692383,1313.963135 
	C1159.260742,1313.459595 1163.814941,1312.829346 1168.382568,1312.319214 
	C1173.313232,1311.768799 1178.316040,1311.637085 1183.177368,1310.731567 
	C1202.330688,1307.164307 1219.872803,1299.562134 1236.268799,1289.123047 
	C1267.753540,1269.077271 1289.609009,1241.072388 1301.399292,1206.052734 
	C1311.170410,1177.029785 1312.724487,1146.965942 1304.766479,1116.934814 
	C1292.136841,1069.274414 1263.898682,1034.377197 1219.436157,1012.745300 
	C1193.848267,1000.296387 1167.121216,995.173950 1138.558350,997.482117 
	C1098.738770,1000.699829 1064.802490,1016.296448 1037.304932,1044.732666 
	C1001.966797,1081.277100 987.461670,1125.471191 993.754272,1176.005859 
	C998.250916,1212.117310 1013.757019,1242.845947 1039.796143,1268.575928 
	C1062.491699,1291.001831 1089.384155,1304.769409 1122.066650,1311.603760 
z"/>
<path fill="#FEFEFE" opacity="1.000000" stroke="none" 
	d="
M3394.259277,683.726746 
	C3386.394775,675.600647 3379.026611,667.986938 3371.672852,660.359619 
	C3353.057861,641.052551 3334.449219,621.739380 3314.993164,601.552002 
	C3314.993164,765.918518 3314.993164,929.160583 3314.993164,1093.035400 
	C3267.403564,1093.035400 3220.265625,1093.035400 3172.394043,1093.035400 
	C3172.394043,855.852417 3172.394043,618.818359 3172.394043,381.294312 
	C3174.923828,380.947174 3177.159912,380.376770 3179.396973,380.372894 
	C3212.725098,380.315521 3246.053711,380.406799 3279.381348,380.266602 
	C3285.550293,380.240662 3290.257080,382.624054 3294.336670,386.915466 
	C3309.904053,403.291382 3325.387939,419.748322 3341.093750,435.990875 
	C3371.614502,467.554901 3402.313965,498.946106 3432.843506,530.501892 
	C3455.932617,554.366882 3478.782227,578.464111 3501.906494,602.294678 
	C3521.776367,622.771790 3541.965576,642.938721 3561.858154,663.394043 
	C3574.588867,676.484802 3587.092041,689.798889 3599.564697,703.136780 
	C3602.045898,705.789856 3603.924805,709.005981 3606.081299,711.962524 
	C3606.898926,711.461853 3607.716553,710.961121 3608.534180,710.460388 
	C3608.910156,708.786743 3609.614258,707.113281 3609.615234,705.439453 
	C3609.667725,601.788635 3609.662598,498.137817 3609.662842,394.487000 
	C3609.662842,394.153717 3609.662109,393.820435 3609.662354,393.487152 
	C3609.666260,389.670105 3608.159180,383.988678 3610.028564,382.473938 
	C3612.813477,380.216858 3617.980225,380.420532 3622.135986,380.407318 
	C3661.462891,380.281952 3700.790527,380.332642 3740.117920,380.332642 
	C3743.681641,380.332642 3747.245361,380.332642 3752.007080,380.332642 
	C3753.465820,618.567444 3750.331543,855.523132 3752.223145,1093.071533 
	C3704.242920,1093.071533 3657.098389,1093.071533 3609.364258,1093.071533 
	C3609.007568,1091.084351 3608.337158,1089.213013 3608.395508,1087.364624 
	C3608.720215,1077.092773 3609.572754,1066.827637 3609.603027,1056.558350 
	C3609.740479,1009.899170 3609.520752,963.238464 3609.812500,916.580750 
	C3609.857666,909.358582 3607.834961,904.218018 3602.726318,899.023254 
	C3569.848633,865.590393 3537.321777,831.812744 3504.678223,798.149841 
	C3483.189209,775.989746 3461.662109,753.866577 3440.220215,731.661255 
	C3425.008789,715.908508 3409.910645,700.046265 3394.259277,683.726746 
z"/>
<path fill="#FEFEFE" opacity="1.000000" stroke="none" 
	d="
M2152.336670,404.860168 
	C2152.339844,444.974457 2152.339844,484.176971 2152.339844,525.170471 
	C2145.938965,523.895752 2140.910645,523.749390 2136.613281,521.902283 
	C2104.081055,507.920135 2070.388184,498.910614 2035.045532,495.538300 
	C1992.877441,491.514801 1950.810669,491.962280 1909.440552,500.773895 
	C1870.222900,509.127045 1834.633057,526.221924 1805.344604,554.343201 
	C1791.174927,567.947998 1779.557129,583.798767 1770.558960,601.352356 
	C1754.781128,632.132446 1746.267822,664.950623 1743.651245,699.372925 
	C1742.624146,712.885986 1740.232056,726.432373 1740.681152,739.889465 
	C1741.407837,761.666687 1742.512817,783.505859 1746.478027,805.060913 
	C1749.542480,821.719360 1753.555054,838.062927 1759.548584,853.946777 
	C1778.471191,904.093933 1810.682983,941.892517 1860.263428,964.060242 
	C1888.507935,976.688538 1918.003662,982.547913 1948.811157,984.677246 
	C1971.925537,986.274902 1994.432983,984.190002 2016.970093,980.228943 
	C2022.480225,979.260559 2027.791870,977.162781 2033.976562,975.355896 
	C2033.976562,893.996033 2033.976562,812.799866 2033.976562,730.637329 
	C2079.280518,730.637329 2123.690430,730.637329 2168.072754,730.637329 
	C2170.157715,737.988159 2171.109619,1041.279175 2169.118896,1065.496704 
	C2147.662842,1076.576172 2124.662109,1083.974731 2101.108398,1089.645020 
	C2086.646484,1093.126709 2072.061523,1096.380615 2057.353027,1098.486450 
	C2039.030762,1101.109497 2020.557373,1102.929199 2002.087402,1104.190552 
	C1985.528931,1105.321289 1968.869873,1105.892456 1952.286133,1105.476562 
	C1936.781006,1105.087646 1921.291504,1103.318970 1905.841553,1101.711792 
	C1891.035400,1100.171631 1876.127808,1098.882324 1861.548340,1096.032837 
	C1827.207031,1089.320557 1794.129150,1078.480347 1763.239624,1061.816895 
	C1732.324585,1045.139771 1704.477661,1024.160278 1680.890381,998.117249 
	C1660.984741,976.138977 1645.085449,951.307800 1632.271484,924.446960 
	C1618.185303,894.919312 1608.594604,863.948730 1602.730469,831.952087 
	C1599.278809,813.119202 1598.056519,793.846130 1596.435059,774.719910 
	C1595.230225,760.508606 1593.999756,746.177490 1594.536133,731.966003 
	C1595.660278,702.180176 1596.955200,672.244690 1604.077393,643.172302 
	C1609.107422,622.640137 1614.961914,602.142700 1622.554443,582.441345 
	C1637.015625,544.916382 1658.072632,511.196411 1685.701782,481.736542 
	C1717.981934,447.317505 1756.045654,421.511139 1799.382446,402.815765 
	C1836.926636,386.619232 1876.090576,377.249878 1916.399048,372.491089 
	C1952.144531,368.270996 1988.120850,369.196930 2024.042969,370.215790 
	C2045.632202,370.828125 2067.030029,373.222748 2088.115967,377.835510 
	C2106.881348,381.940643 2125.724121,385.866119 2143.460938,393.693329 
	C2148.219238,395.793121 2152.875977,397.485748 2152.336670,404.860168 
z"/>
<path fill="#FDFDFD" opacity="1.000000" stroke="none" 
	d="
M4064.324951,969.999817 
	C4064.324951,815.056030 4064.324951,661.112244 4064.324951,506.074280 
	C3992.468506,506.074280 3921.037598,506.074280 3849.082275,506.074280 
	C3848.762207,502.830017 3848.364258,500.615204 3848.352051,498.398315 
	C3848.152588,461.084229 3848.048828,423.769470 3847.772949,386.456024 
	C3847.740967,382.143860 3849.445312,380.312042 3853.566650,380.332397 
	C3855.899414,380.343933 3858.232422,380.325775 3860.565186,380.325775 
	C4044.196533,380.325348 4227.828125,380.325348 4411.459473,380.325348 
	C4415.047852,380.325348 4418.636230,380.325378 4422.945801,380.325378 
	C4422.945801,422.375092 4422.945801,463.469940 4422.945801,505.564514 
	C4351.363281,505.564514 4279.919922,505.564514 4207.698242,505.564514 
	C4207.698242,701.711426 4207.698242,896.864868 4207.698242,1091.778687 
	C4200.099121,1094.076904 4076.272217,1094.589355 4064.324951,1092.528809 
	C4064.324951,1052.072266 4064.324951,1011.536072 4064.324951,969.999817 
z"/>
<path fill="#FEFEFE" opacity="1.000000" stroke="none" 
	d="
M2323.662598,1019.999817 
	C2323.662598,806.745056 2323.662598,594.490295 2323.662598,382.482422 
	C2331.550537,379.674347 2456.898926,379.464417 2466.329102,382.313232 
	C2466.329102,577.427490 2466.329102,772.858398 2466.329102,969.281067 
	C2561.619629,970.910583 2655.892334,968.075562 2749.910889,968.339355 
	C2752.024414,976.183350 2752.598389,1078.697144 2750.768555,1093.090454 
	C2608.749756,1093.090454 2466.656982,1093.090454 2323.662598,1093.090454 
	C2323.662598,1068.823975 2323.662598,1044.911987 2323.662598,1019.999817 
z"/>
<path fill="#FDFDFD" opacity="1.000000" stroke="none" 
	d="
M3007.675293,1038.000244 
	C3007.675293,1056.630371 3007.675293,1074.260376 3007.675293,1091.672729 
	C3000.099609,1094.204590 2890.375000,1095.180420 2865.049072,1093.079468 
	C2865.049072,856.083374 2865.049072,619.027222 2865.049072,381.986237 
	C2873.624756,379.417450 2999.783447,379.694946 3007.675293,382.522217 
	C3007.675293,600.521729 3007.675293,818.760925 3007.675293,1038.000244 
z"/>
<path fill="#51ACBA" opacity="1.000000" stroke="none" 
	d="
M408.004761,280.193970 
	C416.902802,319.734253 412.792389,356.774689 394.248474,392.184967 
	C378.304352,422.630768 355.034332,445.448395 324.296814,460.465729 
	C303.829681,470.465271 282.384003,476.974579 259.148621,476.412933 
	C244.184631,476.051208 229.327209,476.285431 214.643127,472.184204 
	C162.533371,457.630035 125.527992,425.742859 106.120132,375.327667 
	C87.285431,326.401306 92.156189,278.681335 119.609009,233.904251 
	C136.361176,206.580505 159.931076,186.253586 189.208481,173.287811 
	C224.491714,157.662323 261.194458,155.811569 298.232819,165.930908 
	C321.227386,172.213287 341.540283,183.824432 359.459015,199.844360 
	C383.719330,221.533905 399.627167,248.049362 408.004761,280.193970 
z"/>
<path fill="#58BAA8" opacity="1.000000" stroke="none" 
	d="
M993.721069,296.194214 
	C994.571350,291.090302 995.236267,286.833069 996.180359,282.638733 
	C1000.911072,261.620911 1009.742371,242.402954 1022.380798,225.023224 
	C1037.899170,203.682968 1057.533569,187.046509 1081.364380,175.634003 
	C1105.428467,164.109802 1130.727539,159.083923 1157.571533,160.129471 
	C1193.092041,161.512970 1224.261353,173.516434 1251.510620,195.897629 
	C1281.388428,220.437698 1299.916016,251.568695 1306.536377,290.016205 
	C1316.638428,348.682983 1298.319092,397.525757 1255.712158,437.496826 
	C1239.954834,452.279236 1220.750977,461.955322 1199.788330,469.034332 
	C1171.983276,478.424011 1144.099731,478.846191 1116.312866,473.201935 
	C1087.976440,467.446106 1062.970337,454.011963 1041.799438,433.499390 
	C1020.999329,413.346283 1006.064026,389.845947 998.284973,362.132568 
	C992.325867,340.903229 990.203735,319.111389 993.721069,296.194214 
z"/>
<path fill="#51ACBA" opacity="1.000000" stroke="none" 
	d="
M1121.200928,1311.423096 
	C1089.384155,1304.769409 1062.491699,1291.001831 1039.796143,1268.575928 
	C1013.757019,1242.845947 998.250916,1212.117310 993.754272,1176.005859 
	C987.461670,1125.471191 1001.966797,1081.277100 1037.304932,1044.732666 
	C1064.802490,1016.296448 1098.738770,1000.699829 1138.558350,997.482117 
	C1167.121216,995.173950 1193.848267,1000.296387 1219.436157,1012.745300 
	C1263.898682,1034.377197 1292.136841,1069.274414 1304.766479,1116.934814 
	C1312.724487,1146.965942 1311.170410,1177.029785 1301.399292,1206.052734 
	C1289.609009,1241.072388 1267.753540,1269.077271 1236.268799,1289.123047 
	C1219.872803,1299.562134 1202.330688,1307.164307 1183.177368,1310.731567 
	C1178.316040,1311.637085 1173.313232,1311.768799 1168.382568,1312.319214 
	C1163.814941,1312.829346 1159.260742,1313.459595 1154.692383,1313.963135 
	C1153.044922,1314.144653 1151.358398,1314.290161 1149.716064,1314.148193 
	C1140.495239,1313.351318 1131.282227,1312.461670 1121.200928,1311.423096 
z"/>
<path fill="#4A9DCD" opacity="1.000000" stroke="none" 
	d="
M416.151733,1116.471436 
	C414.143433,1138.903198 413.592407,1161.581299 409.850739,1183.720093 
	C399.083099,1247.430176 350.754211,1297.319092 286.827118,1311.186035 
	C274.351318,1313.892212 261.126953,1314.608643 248.331161,1314.109009 
	C207.683777,1312.521851 172.207489,1297.861206 143.012161,1269.139404 
	C117.050941,1243.599243 100.759819,1212.699707 96.558990,1176.604614 
	C90.946648,1128.381348 103.158386,1085.231323 136.587753,1048.660889 
	C161.834015,1021.042542 193.039307,1005.193665 229.356857,998.667053 
	C237.804718,997.148804 246.491318,996.737000 255.092148,996.346375 
	C266.720795,995.818237 278.372742,995.802246 291.028931,996.270508 
	C295.161896,1000.742126 297.897766,1004.928345 301.472412,1008.197449 
	C311.446594,1017.319336 321.967896,1025.844604 331.906158,1035.003662 
	C346.916534,1048.837402 360.930817,1063.844971 376.685303,1076.745483 
	C387.394318,1085.514526 396.666840,1095.718872 407.435364,1104.288940 
	C410.440125,1106.680298 414.198822,1108.124268 417.611694,1110.002808 
	C417.604828,1110.980225 417.597992,1111.957520 417.023499,1113.914185 
	C416.205109,1115.390503 416.103729,1115.916504 416.151733,1116.471436 
z"/>
<path fill="#55B5AF" opacity="1.000000" stroke="none" 
	d="
M1001.535767,649.820679 
	C1004.277466,642.791382 1006.286621,635.358093 1009.898743,628.808960 
	C1020.525879,609.540771 1033.908691,592.661682 1051.366943,578.675964 
	C1068.499512,564.951111 1087.081177,554.479309 1108.115967,549.204834 
	C1154.432739,537.590881 1198.314697,543.408875 1238.594360,570.252808 
	C1272.573975,592.898071 1295.094116,623.847046 1304.865234,663.567078 
	C1314.430420,702.450317 1310.140991,739.919434 1291.469360,775.501587 
	C1275.556519,805.826172 1252.077271,828.491272 1220.100952,843.875977 
	C1215.583374,842.046204 1212.104492,840.633850 1209.437866,838.295471 
	C1196.223633,826.707520 1183.148315,814.957642 1170.166626,803.108704 
	C1153.006836,787.445984 1136.029175,771.583679 1118.879028,755.910278 
	C1105.413696,743.604309 1091.709595,731.558960 1078.283569,719.210815 
	C1059.223267,701.680786 1040.396606,683.896362 1021.307922,666.397522 
	C1014.974365,660.591431 1008.140869,655.330688 1001.535767,649.820679 
z"/>
<path fill="#4DA3C6" opacity="1.000000" stroke="none" 
	d="
M396.532349,840.201477 
	C390.089355,850.785583 385.200439,862.874268 376.794067,871.557617 
	C367.164856,881.503906 358.429199,892.432861 346.406403,900.488037 
	C325.638519,914.402588 303.799225,924.545654 279.142181,928.465576 
	C247.428268,933.507324 216.922852,929.304443 187.661560,916.102905 
	C171.132675,908.645630 156.173965,898.611328 143.495636,885.807373 
	C132.330566,874.531799 122.340958,862.243958 114.756012,847.883606 
	C106.431358,832.122803 99.969917,815.900330 97.418533,798.386536 
	C92.622757,765.466309 95.553871,733.462280 110.578949,703.157959 
	C123.106133,677.891724 140.899139,657.197449 163.865128,640.924988 
	C166.564651,639.012329 169.629547,637.615417 173.297974,636.544800 
	C183.088287,646.756531 191.082886,657.698364 201.329163,665.788330 
	C225.029892,684.501282 245.445511,706.762573 268.685669,725.946472 
	C284.184570,738.740173 298.592682,752.860840 313.409607,766.473877 
	C331.212341,782.830139 348.765411,799.462341 366.752838,815.611511 
	C376.323761,824.204346 386.583527,832.029724 396.532349,840.201477 
z"/>
<path fill="#52AEB7" opacity="1.000000" stroke="none" 
	d="
M586.367981,622.006348 
	C591.576904,614.447266 596.081970,606.265991 602.117676,599.437744 
	C627.026428,571.258179 657.688354,552.903931 695.102112,546.284607 
	C737.377319,538.805176 776.500366,546.947815 811.975281,570.643311 
	C848.482117,595.028015 871.393555,629.442627 879.321411,672.510986 
	C886.176636,709.752869 880.853333,745.611023 861.796936,779.214233 
	C850.922913,798.388794 836.669312,814.158386 818.466797,827.978821 
	C815.891541,827.442139 814.463989,827.151001 813.543274,826.306946 
	C795.695801,809.945618 777.858337,793.572693 760.124268,777.088684 
	C747.968506,765.789551 736.018311,754.269409 723.889771,742.940613 
	C716.379761,735.925781 708.743469,729.044739 701.101562,722.172852 
	C681.884155,704.891785 662.534119,687.756836 643.428284,670.353577 
	C631.406433,659.403015 619.783508,648.015747 607.870361,636.944153 
	C603.266113,632.665100 598.504883,628.519226 593.507507,624.717163 
	C591.564697,623.239075 588.773010,622.876892 586.367981,622.006348 
z"/>
<path fill="#4EA5C3" opacity="1.000000" stroke="none" 
	d="
M548.057861,1070.205566 
	C557.574951,1052.960693 571.513794,1039.589355 586.896240,1027.902954 
	C608.936035,1011.158752 634.062073,1001.376709 661.620911,998.125977 
	C664.911072,997.737976 668.253845,997.796387 672.923340,997.684509 
	C674.938843,997.585205 675.473938,997.245605 675.879761,996.702454 
	C685.992615,996.586792 696.105530,996.471069 707.491028,996.978271 
	C718.176025,1006.401855 727.887817,1014.907227 736.929321,1024.073730 
	C749.884521,1037.208008 764.691223,1048.253418 777.364502,1061.796387 
	C789.728210,1075.008423 804.053223,1086.388672 817.557678,1098.527954 
	C822.955688,1103.380127 828.206970,1108.458862 834.034241,1112.741577 
	C836.690247,1114.693481 840.581604,1114.964600 843.912598,1115.998047 
	C843.200500,1122.889526 842.412292,1129.774048 841.792236,1136.673828 
	C840.491821,1151.144165 839.317017,1165.625854 838.022034,1180.096802 
	C836.363342,1198.632202 829.516785,1215.540283 820.784729,1231.633301 
	C812.352478,1247.173584 801.580627,1261.102661 788.382019,1272.999146 
	C785.686340,1275.428955 782.637024,1277.466431 778.376770,1279.881592 
	C774.177368,1278.560303 770.928345,1277.517090 768.600464,1275.441040 
	C758.932434,1266.818848 749.510986,1257.918579 740.065125,1249.049927 
	C735.998840,1245.232178 732.236633,1241.083496 728.090637,1237.358643 
	C710.321472,1221.394897 692.398315,1205.602539 674.658508,1189.606567 
	C664.789612,1180.707642 655.142578,1171.561401 645.451355,1162.467285 
	C640.661377,1157.972412 636.168518,1153.149170 631.244507,1148.811401 
	C617.561584,1136.757446 603.565979,1125.055298 589.990234,1112.883667 
	C576.384155,1100.684937 563.085083,1088.140625 549.816223,1075.573730 
	C548.613953,1074.434937 548.615417,1072.025146 548.057861,1070.205566 
z"/>
<path fill="#55B3B1" opacity="1.000000" stroke="none" 
	d="
M564.473572,325.997131 
	C563.260742,264.065155 588.700623,216.313507 641.357239,183.356293 
	C641.221558,189.716782 640.442017,195.420639 639.418152,202.912292 
	C645.301208,208.165588 652.384094,214.604523 659.592529,220.899826 
	C670.055908,230.037888 680.925598,238.735153 691.056702,248.223999 
	C709.676086,265.662964 727.827637,283.600250 746.287781,301.210785 
	C754.436279,308.984222 762.736328,316.609985 771.190308,324.049652 
	C785.838928,336.940796 800.724487,349.562592 815.392212,362.432343 
	C829.756226,375.035675 843.972656,387.807343 858.253845,400.505127 
	C852.725342,413.107391 843.353027,422.914917 833.679626,432.123230 
	C806.372437,458.117401 774.256653,474.067871 734.783447,476.249878 
	C732.957214,476.383179 732.511963,476.691071 732.170410,477.148895 
	C731.244751,477.295044 730.319031,477.441223 728.683105,476.723328 
	C727.088867,474.166656 726.588989,472.052216 725.263184,470.845001 
	C706.628784,453.878387 687.836731,437.085144 669.178955,420.143982 
	C657.682312,409.705017 646.404053,399.025604 634.926392,388.565430 
	C623.898926,378.515594 612.659668,368.697540 601.663025,358.614563 
	C590.894348,348.740479 580.352661,338.618927 569.603699,328.722900 
	C568.225403,327.453979 566.199463,326.888489 564.473572,325.997131 
z"/>
<path fill="#50AABC" opacity="1.000000" stroke="none" 
	d="
M585.860718,622.515381 
	C588.773010,622.876892 591.564697,623.239075 593.507507,624.717163 
	C598.504883,628.519226 603.266113,632.665100 607.870361,636.944153 
	C619.783508,648.015747 631.406433,659.403015 643.428284,670.353577 
	C662.534119,687.756836 681.884155,704.891785 701.101562,722.172852 
	C708.743469,729.044739 716.379761,735.925781 723.889771,742.940613 
	C736.018311,754.269409 747.968506,765.789551 760.124268,777.088684 
	C777.858337,793.572693 795.695801,809.945618 813.543274,826.306946 
	C814.463989,827.151001 815.891541,827.442139 817.810791,828.093506 
	C804.822693,838.859558 789.505066,846.529053 773.162781,852.190491 
	C754.945129,858.501465 736.168945,860.382385 716.895325,860.468811 
	C675.940857,860.652222 636.813049,869.659058 599.782166,887.380127 
	C596.515869,888.943237 593.135132,890.267212 588.518616,891.682739 
	C571.018311,876.974182 554.931091,862.144043 538.512024,847.690918 
	C534.153625,843.854370 528.775330,841.176331 523.865295,837.966370 
	C531.687012,821.158081 540.451904,804.714294 547.118774,787.459839 
	C558.319702,758.470581 564.221863,728.313171 564.510254,696.997803 
	C564.710815,675.224304 569.864685,654.272400 579.595886,634.615234 
	C581.509766,630.749084 583.433960,626.887939 585.860718,622.515381 
z"/>
<path fill="#53B0B4" opacity="1.000000" stroke="none" 
	d="
M1001.002075,650.323853 
	C1008.140869,655.330688 1014.974365,660.591431 1021.307922,666.397522 
	C1040.396606,683.896362 1059.223267,701.680786 1078.283569,719.210815 
	C1091.709595,731.558960 1105.413696,743.604309 1118.879028,755.910278 
	C1136.029175,771.583679 1153.006836,787.445984 1170.166626,803.108704 
	C1183.148315,814.957642 1196.223633,826.707520 1209.437866,838.295471 
	C1212.104492,840.633850 1215.583374,842.046204 1219.400391,843.962891 
	C1198.971802,855.245667 1176.263428,860.583862 1152.516479,860.186768 
	C1105.477295,859.400391 1061.101807,870.269775 1019.200989,890.762878 
	C1002.639099,898.862976 987.619629,910.116699 970.509521,919.966797 
	C959.458435,911.710083 949.797119,903.419250 940.132080,895.132812 
	C936.154297,891.722473 931.950806,888.537231 928.274475,884.828796 
	C926.325439,882.862671 925.285706,879.995178 923.835510,877.534607 
	C930.659546,867.770447 937.757751,858.185059 944.258789,848.210327 
	C968.892212,810.413818 985.074280,769.395142 990.199890,724.375488 
	C991.435425,713.523682 990.880798,702.445679 992.443176,691.659119 
	C994.429138,677.948608 997.732849,664.428894 1001.002075,650.323853 
z"/>
<path fill="#4FA7C1" opacity="1.000000" stroke="none" 
	d="
M397.053223,839.743896 
	C386.583527,832.029724 376.323761,824.204346 366.752838,815.611511 
	C348.765411,799.462341 331.212341,782.830139 313.409607,766.473877 
	C298.592682,752.860840 284.184570,738.740173 268.685669,725.946472 
	C245.445511,706.762573 225.029892,684.501282 201.329163,665.788330 
	C191.082886,657.698364 183.088287,646.756531 173.991455,636.398926 
	C182.662643,631.199951 191.116730,625.953369 200.229477,622.392334 
	C216.104660,616.188660 232.761765,613.679626 249.914474,613.598999 
	C289.378754,613.413513 327.815247,607.269653 365.273926,592.900879 
	C366.950134,595.706421 367.404236,598.201904 368.876709,599.688843 
	C375.071167,605.943970 381.471130,612.006287 387.981079,617.935791 
	C396.972015,626.125122 406.139587,634.120239 415.210266,642.222351 
	C417.912384,644.635925 420.583984,647.086853 423.198303,649.594971 
	C428.153687,654.349060 433.057556,659.156982 437.982819,663.942505 
	C433.453949,676.331909 428.283417,688.531433 424.548523,701.155701 
	C419.121124,719.500732 414.602814,738.087341 413.585571,757.388611 
	C412.822998,771.858337 412.323029,786.503479 409.585266,800.660339 
	C407.040771,813.817810 401.689575,826.432617 397.053223,839.743896 
z"/>
<path fill="#56B6AD" opacity="1.000000" stroke="none" 
	d="
M858.804565,400.025452 
	C843.972656,387.807343 829.756226,375.035675 815.392212,362.432343 
	C800.724487,349.562592 785.838928,336.940796 771.190308,324.049652 
	C762.736328,316.609985 754.436279,308.984222 746.287781,301.210785 
	C727.827637,283.600250 709.676086,265.662964 691.056702,248.223999 
	C680.925598,238.735153 670.055908,230.037888 659.592529,220.899826 
	C652.384094,214.604523 645.301208,208.165588 639.418152,202.912292 
	C640.442017,195.420639 641.221558,189.716782 642.003357,183.186905 
	C670.582092,164.368362 702.013123,158.136154 735.275818,160.397583 
	C774.250122,163.047333 807.722534,178.440109 835.309937,206.001602 
	C860.495422,231.163422 875.852295,261.277710 880.489929,296.950684 
	C884.451294,327.421509 880.156311,356.411621 867.780457,384.319763 
	C865.438110,389.601776 862.187012,394.480804 858.804565,400.025452 
z"/>
<path fill="#4CA1C7" opacity="1.000000" stroke="none" 
	d="
M547.440491,1070.504761 
	C548.615417,1072.025146 548.613953,1074.434937 549.816223,1075.573730 
	C563.085083,1088.140625 576.384155,1100.684937 589.990234,1112.883667 
	C603.565979,1125.055298 617.561584,1136.757446 631.244507,1148.811401 
	C636.168518,1153.149170 640.661377,1157.972412 645.451355,1162.467285 
	C655.142578,1171.561401 664.789612,1180.707642 674.658508,1189.606567 
	C692.398315,1205.602539 710.321472,1221.394897 728.090637,1237.358643 
	C732.236633,1241.083496 735.998840,1245.232178 740.065125,1249.049927 
	C749.510986,1257.918579 758.932434,1266.818848 768.600464,1275.441040 
	C770.928345,1277.517090 774.177368,1278.560303 777.770142,1280.138062 
	C768.005676,1290.561646 754.993652,1296.778931 741.512085,1302.126465 
	C727.521118,1307.675659 713.153015,1310.852417 698.028809,1312.758057 
	C667.719055,1316.576904 639.256409,1311.520264 612.238892,1298.697510 
	C589.194824,1287.760498 569.808411,1271.625610 554.527283,1250.935303 
	C536.595154,1226.655396 526.447937,1199.554077 523.534546,1169.404785 
	C520.087769,1133.736206 528.853577,1101.259033 547.440491,1070.504761 
z"/>
<path fill="#4DA3C4" opacity="1.000000" stroke="none" 
	d="
M523.306152,838.341919 
	C528.775330,841.176331 534.153625,843.854370 538.512024,847.690918 
	C554.931091,862.144043 571.018311,876.974182 587.876526,891.960693 
	C573.527588,898.838745 559.280884,907.171265 546.661499,917.225647 
	C527.020447,932.874634 507.769196,949.210327 491.139404,968.284729 
	C475.423767,986.310486 460.861633,1005.334717 449.490143,1026.254150 
	C436.705444,1049.773438 425.909210,1074.397217 420.195007,1100.852661 
	C419.635803,1103.441650 418.878479,1105.987793 417.912415,1109.278320 
	C414.198822,1108.124268 410.440125,1106.680298 407.435364,1104.288940 
	C396.666840,1095.718872 387.394318,1085.514526 376.685303,1076.745483 
	C360.930817,1063.844971 346.916534,1048.837402 331.906158,1035.003662 
	C321.967896,1025.844604 311.446594,1017.319336 301.472412,1008.197449 
	C297.897766,1004.928345 295.161896,1000.742126 291.959412,996.249756 
	C306.359680,992.274902 321.029114,989.680542 335.292175,985.648682 
	C374.071259,974.686523 408.884430,955.987366 440.739471,931.265076 
	C459.769958,916.495850 476.931244,899.843506 492.407776,881.662292 
	C503.722504,868.370239 512.717896,853.103882 523.306152,838.341919 
z"/>
<path fill="#50A9BC" opacity="1.000000" stroke="none" 
	d="
M923.264343,877.913513 
	C925.285706,879.995178 926.325439,882.862671 928.274475,884.828796 
	C931.950806,888.537231 936.154297,891.722473 940.132080,895.132812 
	C949.797119,903.419250 959.458435,911.710083 969.850647,920.102051 
	C965.385986,924.207031 959.972961,927.959351 955.053528,932.274414 
	C948.964661,937.615234 943.329529,943.469971 937.421265,949.020569 
	C911.555664,973.320129 890.575989,1001.466675 873.960693,1032.637817 
	C861.016357,1056.921997 850.789917,1082.471924 845.812805,1109.799927 
	C845.518555,1111.415405 844.975220,1112.985474 844.230164,1115.287354 
	C840.581604,1114.964600 836.690247,1114.693481 834.034241,1112.741577 
	C828.206970,1108.458862 822.955688,1103.380127 817.557678,1098.527954 
	C804.053223,1086.388672 789.728210,1075.008423 777.364502,1061.796387 
	C764.691223,1048.253418 749.884521,1037.208008 736.929321,1024.073730 
	C727.887817,1014.907227 718.176025,1006.401855 708.426880,997.065674 
	C731.127075,993.735291 753.857544,989.591431 775.860474,981.922424 
	C812.892517,969.015259 846.323181,949.853943 876.516968,924.871155 
	C893.458008,910.853821 908.651489,895.157166 923.264343,877.913513 
z"/>
<path fill="#53AFB5" opacity="1.000000" stroke="none" 
	d="
M564.164795,326.822113 
	C566.199463,326.888489 568.225403,327.453979 569.603699,328.722900 
	C580.352661,338.618927 590.894348,348.740479 601.663025,358.614563 
	C612.659668,368.697540 623.898926,378.515594 634.926392,388.565430 
	C646.404053,399.025604 657.682312,409.705017 669.178955,420.143982 
	C687.836731,437.085144 706.628784,453.878387 725.263184,470.845001 
	C726.588989,472.052216 727.088867,474.166656 727.995239,476.544800 
	C718.402771,477.455444 708.788452,477.709839 699.172852,477.899475 
	C678.466431,478.307800 658.518677,483.239716 638.918152,489.141510 
	C625.062805,493.313416 611.638123,499.078461 598.316406,504.817780 
	C582.487000,511.637543 567.458618,520.025452 553.458496,530.188110 
	C551.112122,531.891296 548.201233,532.816711 544.743469,533.486633 
	C543.368835,531.702087 543.080811,530.231262 542.192505,529.408630 
	C531.581604,519.582336 520.962280,509.761597 510.159821,500.147614 
	C506.511719,496.900879 502.340454,494.241974 498.408264,491.314453 
	C498.814117,490.511383 499.219940,489.708313 500.414124,488.194702 
	C501.593842,487.128540 501.870636,486.699127 502.032928,486.195892 
	C529.846619,448.801422 549.829407,407.728577 559.436584,361.982880 
	C561.800903,350.724762 562.429504,339.102142 564.164795,326.822113 
z"/>
<path fill="#50AABB" opacity="1.000000" stroke="none" 
	d="
M497.919434,491.684570 
	C502.340454,494.241974 506.511719,496.900879 510.159821,500.147614 
	C520.962280,509.761597 531.581604,519.582336 542.192505,529.408630 
	C543.080811,530.231262 543.368835,531.702087 544.023376,533.579712 
	C542.552246,536.262024 541.329834,538.684814 539.384521,540.143738 
	C507.718018,563.893127 481.532837,592.823547 459.748566,625.658142 
	C451.881775,637.515442 445.973785,650.672302 438.577362,663.589294 
	C433.057556,659.156982 428.153687,654.349060 423.198303,649.594971 
	C420.583984,647.086853 417.912384,644.635925 415.210266,642.222351 
	C406.139587,634.120239 396.972015,626.125122 387.981079,617.935791 
	C381.471130,612.006287 375.071167,605.943970 368.876709,599.688843 
	C367.404236,598.201904 366.950134,595.706421 366.024048,592.958435 
	C379.203552,585.329590 392.619690,578.822693 405.516388,571.411804 
	C425.981537,559.651917 445.224457,546.059387 461.943695,529.282593 
	C474.042450,517.142151 485.620392,504.482666 497.919434,491.684570 
z"/>
<path fill="#50AABB" opacity="1.000000" stroke="none" 
	d="
M501.614868,486.305786 
	C501.870636,486.699127 501.593842,487.128540 500.878113,487.693542 
	C500.400726,487.248322 500.615082,486.752563 501.614868,486.305786 
z"/>
<path fill="#53AFB5" opacity="1.000000" stroke="none" 
	d="
M732.611938,477.237427 
	C732.511963,476.691071 732.957214,476.383179 733.914734,476.165649 
	C734.081787,476.701843 733.658508,477.108490 732.611938,477.237427 
z"/>
<path fill="#50A9BC" opacity="1.000000" stroke="none" 
	d="
M675.371216,996.597656 
	C675.473938,997.245605 674.938843,997.585205 673.788513,997.743896 
	C673.822632,997.342102 674.342651,996.917480 675.371216,996.597656 
z"/>
<path fill="#4DA3C4" opacity="1.000000" stroke="none" 
	d="
M416.449982,1116.169678 
	C416.103729,1115.916504 416.205109,1115.390503 416.700378,1114.574219 
	C417.184875,1114.829712 417.119324,1115.367310 416.449982,1116.169678 
z"/>
</svg>