<svg version="1.1" id="Layer_1" xmlns="http://www.w3.org/2000/svg" xmlns:xlink="http://www.w3.org/1999/xlink" x="0px" y="0px"
	 width="100%" viewBox="0 0 4500 1466" enable-background="new 0 0 4500 1466" xml:space="preserve">
<path fill="#FFFFFF" opacity="1.000000" stroke="none" 
	d="
M2952.000000,1468.000000 
	C1968.000000,1468.000000 985.000000,1468.000000 2.000000,1468.000000 
	C2.000000,979.333313 2.000000,490.666656 2.000000,2.000000 
	C1502.000000,2.000000 3002.000000,2.000000 4502.000000,2.000000 
	C4502.000000,490.666656 4502.000000,979.333313 4502.000000,1468.000000 
	C3985.666748,1468.000000 3469.333252,1468.000000 2952.000000,1468.000000 
M551.968689,529.962341 
	C572.581055,516.351990 594.097229,504.430573 617.221924,495.624176 
	C641.422180,486.408081 666.104675,479.087799 692.195312,477.738586 
	C704.130005,477.121399 716.065063,476.512482 729.771484,476.159424 
	C755.538391,475.138794 779.049500,467.287781 801.489258,454.577271 
	C816.337708,446.166687 828.086304,434.646301 840.158813,423.115265 
	C846.503479,417.055145 850.987976,410.052216 855.768127,401.619202 
	C860.001038,394.622528 865.044250,387.983917 868.322327,380.565369 
	C880.557861,352.874634 883.809692,323.601776 879.252136,293.986023 
	C873.393860,255.917374 855.598267,223.957260 826.116943,198.629425 
	C796.906006,173.533951 762.793030,161.396988 724.781311,160.471054 
	C704.802856,159.984375 684.999817,163.432648 666.421570,171.175201 
	C652.684998,176.899918 638.855286,182.823151 626.474426,193.795227 
	C600.541138,213.925476 582.546021,239.611710 572.516296,270.875763 
	C566.561218,289.438538 565.130737,308.551178 564.597412,329.174927 
	C562.405640,364.425720 552.511292,397.563080 537.560303,429.406036 
	C527.777710,450.241272 514.968567,469.175598 500.863312,488.690979 
	C473.101227,524.265442 439.702972,553.358337 400.313873,575.393311 
	C388.465637,582.021362 376.087891,587.702881 362.442017,593.941467 
	C328.601868,606.394470 294.157013,615.299988 257.597992,613.912598 
	C247.389053,613.525208 236.939545,614.523193 226.873688,616.372925 
	C207.194092,619.989258 188.108673,625.679504 170.291824,638.075684 
	C115.772446,674.792786 90.681770,725.476624 97.658844,791.321960 
	C102.017708,832.458130 121.210068,866.123535 152.275665,892.340393 
	C186.567627,921.279968 226.697189,933.156799 271.845337,928.490051 
	C303.712402,925.196167 330.973083,912.357971 354.928131,891.962891 
	C372.484406,877.015564 386.317291,858.918762 397.523743,837.222473 
	C406.917053,817.054993 411.331177,795.735535 411.675812,773.598938 
	C412.013763,751.891113 414.954681,730.561279 421.312988,709.867249 
	C426.272949,693.724426 432.449036,677.955322 439.141174,661.163879 
	C452.776184,633.346069 469.631470,607.628540 490.335022,584.590088 
	C508.500458,564.375977 528.977905,546.617798 551.968689,529.962341 
M934.325806,864.527100 
	C878.572754,938.084290 806.730957,984.832886 712.357117,996.469971 
	C702.781555,996.890564 693.205505,997.678955 683.630493,997.665955 
	C648.717773,997.618530 616.900940,1007.290222 588.616699,1027.806763 
	C572.126648,1039.768188 557.703613,1053.800781 546.920532,1072.866455 
	C527.196045,1105.692871 520.349854,1140.893066 525.545044,1178.960083 
	C538.340088,1272.712646 637.070557,1336.393433 727.565979,1306.127563 
	C745.632629,1300.085205 763.383545,1293.066528 779.094055,1279.421509 
	C787.193115,1271.583130 796.080444,1264.399780 803.241211,1255.781738 
	C823.519348,1231.376709 835.570740,1203.291992 838.283569,1171.437866 
	C839.857666,1152.955322 841.578613,1134.485352 843.759705,1114.440552 
	C854.421692,1062.555908 877.207642,1016.544495 911.278198,976.132263 
	C926.646729,957.903076 942.794800,940.359497 961.596802,925.514954 
	C969.007996,919.663757 976.589783,914.028503 985.566772,908.168945 
	C989.357971,906.233887 993.268982,904.500854 996.922302,902.333374 
	C1045.057251,873.775269 1096.638306,858.256470 1153.060791,859.472046 
	C1164.366333,859.715637 1175.886597,857.138245 1187.048462,854.682556 
	C1196.231812,852.662170 1205.030762,848.894287 1215.435181,845.870422 
	C1252.347656,828.969543 1279.052856,801.942871 1295.695312,764.942017 
	C1308.056030,737.460938 1311.155518,708.521423 1307.014893,679.091858 
	C1301.991089,643.385437 1286.011353,612.915161 1259.517944,588.086731 
	C1220.378540,551.407104 1174.093628,538.426331 1121.754517,547.338623 
	C1084.314453,553.713867 1053.399536,572.358521 1029.176270,601.604797 
	C1017.260803,615.990967 1007.242737,631.629333 1001.578369,651.308411 
	C1001.173279,652.218262 1000.719177,653.109741 1000.370300,654.040649 
	C993.480164,672.423889 993.667603,691.877625 992.443787,710.991821 
	C989.692810,753.959534 976.690918,793.640991 955.800354,830.925659 
	C949.503113,842.164734 942.235657,852.860229 934.325806,864.527100 
M589.753784,890.087708 
	C592.545898,889.109863 595.453430,888.375549 598.111694,887.115356 
	C618.272888,877.557373 639.252075,870.513977 661.038452,865.661865 
	C681.179688,861.176086 701.495056,859.430298 722.102051,859.607605 
	C730.989868,859.684143 740.047241,859.116699 748.754700,857.431702 
	C772.305237,852.874512 794.184326,843.898193 815.388062,829.877197 
	C821.316833,825.069946 827.742004,820.756409 833.093384,815.375000 
	C866.660156,781.620239 882.861023,741.267029 880.454041,693.232849 
	C878.478516,653.809021 863.829041,619.973511 836.550049,592.321960 
	C801.223083,556.512512 757.888855,540.707031 707.296936,545.642395 
	C663.972290,549.868835 629.002258,569.489502 601.090942,602.261292 
	C595.995850,608.243652 592.239929,615.366638 586.764465,622.777527 
	C576.973328,639.607056 570.015991,657.487244 567.726868,676.899109 
	C566.216248,689.709595 565.159485,702.588196 564.359253,715.464844 
	C562.568115,744.288757 555.108337,771.713562 544.065674,798.206177 
	C539.094971,810.131531 533.189026,821.667053 526.549927,834.166809 
	C506.504547,868.724365 481.061096,898.761353 450.509705,924.443542 
	C419.935638,950.144836 386.120056,970.443726 347.979156,982.612976 
	C330.345490,988.239197 312.012360,991.673218 292.245605,995.986816 
	C278.651520,996.570435 265.057129,997.146912 251.463516,997.741394 
	C246.478745,997.959351 241.444870,997.846924 236.520126,998.519775 
	C199.085037,1003.634705 166.591415,1018.638794 140.231094,1046.296509 
	C102.829933,1085.538574 89.639351,1132.294067 98.856682,1184.931274 
	C105.974442,1225.578613 127.330627,1258.533203 160.713608,1282.916992 
	C196.813217,1309.285034 237.468704,1318.639893 281.476532,1311.133789 
	C315.594421,1305.314331 344.693359,1289.476440 368.568604,1264.124756 
	C391.912415,1239.337402 406.014313,1210.178955 410.108826,1176.466797 
	C412.785156,1154.431152 414.352081,1132.260742 417.385437,1109.024170 
	C423.267944,1080.071289 434.085388,1052.954712 448.423676,1027.246826 
	C468.059082,992.041382 493.025055,961.072083 524.043884,935.251282 
	C537.201782,924.298340 549.814453,912.558167 564.897583,904.060181 
	C572.793945,899.611328 580.477966,894.785522 589.753784,890.087708 
M1279.514893,1245.514160 
	C1285.000488,1236.143799 1291.443604,1227.195190 1295.791260,1217.323608 
	C1308.598999,1188.243652 1311.422485,1157.773315 1305.836670,1126.558716 
	C1299.451660,1090.876831 1282.567139,1060.643555 1255.303833,1037.140381 
	C1218.659180,1005.549866 1175.868530,992.612183 1127.520508,999.706787 
	C1097.511963,1004.110291 1070.835571,1015.678955 1046.960327,1036.612549 
	C1044.336792,1039.167358 1041.645630,1041.656860 1039.099854,1044.286865 
	C998.622437,1086.101318 985.075439,1135.994385 997.838684,1192.121338 
	C1009.996521,1245.585693 1043.755493,1281.783325 1094.049927,1302.766846 
	C1112.381836,1310.415161 1131.940430,1313.359863 1151.483765,1313.361694 
	C1170.532104,1313.363525 1189.437500,1309.721802 1207.254639,1302.254517 
	C1236.129028,1290.153076 1260.360840,1272.111694 1279.514893,1245.514160 
M116.559387,240.729202 
	C98.807640,272.953918 92.442123,307.298767 98.304543,343.612854 
	C104.115273,379.606689 120.539520,410.178467 147.492584,434.803040 
	C176.492935,461.298096 210.644119,474.903870 250.091232,475.903503 
	C268.514160,476.370361 286.343323,473.685242 303.496613,467.837128 
	C317.763947,462.972900 332.264740,457.872253 345.231781,447.211487 
	C346.811096,445.989319 348.379669,444.752960 349.971283,443.547028 
	C400.551941,405.222870 422.044800,340.132080 406.843994,279.106110 
	C389.455383,209.296997 321.053864,153.771286 240.060608,161.544189 
	C211.135086,164.320175 184.916916,173.485901 161.594940,190.457565 
	C143.445236,203.665283 127.942482,219.554642 116.559387,240.729202 
M1216.677856,461.872833 
	C1268.605469,436.756805 1299.624634,395.347534 1307.034668,338.584808 
	C1314.289429,283.012146 1295.911621,235.262329 1253.106445,198.445068 
	C1220.143677,170.093384 1181.492920,157.966766 1137.753296,161.561218 
	C1089.555176,165.522079 1051.650513,187.533340 1023.221069,225.819199 
	C1002.348755,253.927948 992.867065,285.930206 993.595154,321.228851 
	C994.665405,373.123474 1015.891479,415.025177 1057.295288,445.185242 
	C1106.031006,480.686035 1159.497803,485.249756 1216.677856,461.872833 
z"/>
<path fill="#59BBA9" opacity="1.000000" stroke="none" 
	d="
M1215.983521,462.174438 
	C1159.497803,485.249756 1106.031006,480.686035 1057.295288,445.185242 
	C1015.891479,415.025177 994.665405,373.123474 993.595154,321.228851 
	C992.867065,285.930206 1002.348755,253.927948 1023.221069,225.819199 
	C1051.650513,187.533340 1089.555176,165.522079 1137.753296,161.561218 
	C1181.492920,157.966766 1220.143677,170.093384 1253.106445,198.445068 
	C1295.911621,235.262329 1314.289429,283.012146 1307.034668,338.584808 
	C1299.624634,395.347534 1268.605469,436.756805 1215.983521,462.174438 
z"/>
<path fill="#4A9DCE" opacity="1.000000" stroke="none" 
	d="
M416.415955,1110.150757 
	C414.352081,1132.260742 412.785156,1154.431152 410.108826,1176.466797 
	C406.014313,1210.178955 391.912415,1239.337402 368.568604,1264.124756 
	C344.693359,1289.476440 315.594421,1305.314331 281.476532,1311.133789 
	C237.468704,1318.639893 196.813217,1309.285034 160.713608,1282.916992 
	C127.330627,1258.533203 105.974442,1225.578613 98.856682,1184.931274 
	C89.639351,1132.294067 102.829933,1085.538574 140.231094,1046.296509 
	C166.591415,1018.638794 199.085037,1003.634705 236.520126,998.519775 
	C241.444870,997.846924 246.478745,997.959351 251.463516,997.741394 
	C265.057129,997.146912 278.651520,996.570435 293.131348,996.772339 
	C295.165955,999.853699 295.808868,1002.673828 297.551025,1004.354797 
	C305.194183,1011.729553 313.136383,1018.795593 321.004791,1025.935425 
	C342.142639,1045.116211 363.308350,1064.266235 384.441498,1083.452148 
	C392.554382,1090.817505 400.523224,1098.344360 408.747864,1105.581665 
	C410.943756,1107.513916 413.840820,1108.649414 416.415955,1110.150757 
z"/>
<path fill="#56B5B0" opacity="1.000000" stroke="none" 
	d="
M1002.356506,650.007568 
	C1007.242737,631.629333 1017.260803,615.990967 1029.176270,601.604797 
	C1053.399536,572.358521 1084.314453,553.713867 1121.754517,547.338623 
	C1174.093628,538.426331 1220.378540,551.407104 1259.517944,588.086731 
	C1286.011353,612.915161 1301.991089,643.385437 1307.014893,679.091858 
	C1311.155518,708.521423 1308.056030,737.460938 1295.695312,764.942017 
	C1279.052856,801.942871 1252.347656,828.969543 1214.716797,845.128906 
	C1214.867310,837.061890 1208.940430,833.878113 1204.734131,829.972473 
	C1192.344727,818.468445 1179.546143,807.406738 1167.057861,796.007446 
	C1156.512939,786.382019 1146.205933,776.496582 1135.740601,766.783325 
	C1127.470825,759.107849 1119.185913,751.446350 1110.792847,743.906494 
	C1092.295410,727.289551 1073.624023,710.864746 1055.221313,694.144165 
	C1043.423706,683.424805 1032.361450,671.863708 1020.197327,661.594666 
	C1014.891296,657.115234 1010.595520,650.263428 1002.356506,650.007568 
z"/>
<path fill="#4DA3C6" opacity="1.000000" stroke="none" 
	d="
M396.503174,838.140930 
	C386.317291,858.918762 372.484406,877.015564 354.928131,891.962891 
	C330.973083,912.357971 303.712402,925.196167 271.845337,928.490051 
	C226.697189,933.156799 186.567627,921.279968 152.275665,892.340393 
	C121.210068,866.123535 102.017708,832.458130 97.658844,791.321960 
	C90.681770,725.476624 115.772446,674.792786 171.597412,638.241089 
	C196.700333,660.035706 220.498077,681.664429 244.294754,703.294312 
	C251.653778,709.983276 259.031677,716.651550 266.361633,723.372192 
	C275.162354,731.441345 283.886292,739.594482 292.704620,747.644226 
	C314.984009,767.981873 337.305542,788.273254 359.593384,808.601624 
	C367.923737,816.199524 376.015686,824.074707 384.607117,831.362732 
	C388.027710,834.264343 392.506256,835.918762 396.503174,838.140930 
z"/>
<path fill="#52AEBA" opacity="1.000000" stroke="none" 
	d="
M117.628700,239.891632 
	C127.942482,219.554642 143.445236,203.665283 161.594940,190.457565 
	C184.916916,173.485901 211.135086,164.320175 240.060608,161.544189 
	C321.053864,153.771286 389.455383,209.296997 406.843994,279.106110 
	C422.044800,340.132080 400.551941,405.222870 349.971283,443.547028 
	C348.379669,444.752960 346.811096,445.989319 344.523834,446.743652 
	C342.926605,444.905060 342.273376,443.280182 341.112488,442.201874 
	C324.616608,426.880280 308.062744,411.620972 291.500854,396.370544 
	C274.449707,380.669678 257.401245,364.965698 240.301666,349.317596 
	C225.651779,335.911255 210.846588,322.673737 196.262833,309.196259 
	C176.313705,290.760437 156.651291,272.011810 136.552963,253.741623 
	C130.801163,248.513000 123.966721,244.475372 117.628700,239.891632 
z"/>
<path fill="#53AFB8" opacity="1.000000" stroke="none" 
	d="
M587.865845,621.963074 
	C592.239929,615.366638 595.995850,608.243652 601.090942,602.261292 
	C629.002258,569.489502 663.972290,549.868835 707.296936,545.642395 
	C757.888855,540.707031 801.223083,556.512512 836.550049,592.321960 
	C863.829041,619.973511 878.478516,653.809021 880.454041,693.232849 
	C882.861023,741.267029 866.660156,781.620239 833.093384,815.375000 
	C827.742004,820.756409 821.316833,825.069946 814.708496,829.380066 
	C813.691040,827.623169 813.753784,825.956970 812.952637,825.167114 
	C805.848022,818.163269 798.753662,811.133423 791.345459,804.456177 
	C773.362549,788.247559 755.152039,772.291565 737.148743,756.105286 
	C722.094849,742.570740 707.194702,728.864929 692.244507,715.215210 
	C676.556519,700.892029 660.812378,686.629089 645.238403,672.182861 
	C632.569092,660.431030 620.317139,648.222595 607.476379,636.665222 
	C601.428284,631.221558 594.432312,626.830872 587.865845,621.963074 
z"/>
<path fill="#4EA5C4" opacity="1.000000" stroke="none" 
	d="
M843.233582,1116.009644 
	C841.578613,1134.485352 839.857666,1152.955322 838.283569,1171.437866 
	C835.570740,1203.291992 823.519348,1231.376709 803.241211,1255.781738 
	C796.080444,1264.399780 787.193115,1271.583130 777.881470,1279.383057 
	C762.919434,1266.383179 749.344299,1253.230713 735.377197,1240.508423 
	C717.281372,1224.025513 698.739380,1208.032104 680.644470,1191.548218 
	C667.659363,1179.719116 655.140259,1167.379761 642.320251,1155.367310 
	C634.590271,1148.124146 626.718811,1141.030273 618.847290,1133.940063 
	C599.426331,1116.446899 580.015747,1098.941528 560.485657,1081.570679 
	C556.610107,1078.123535 552.219482,1075.255493 548.066406,1072.120361 
	C557.703613,1053.800781 572.126648,1039.768188 588.616699,1027.806763 
	C616.900940,1007.290222 648.717773,997.618530 683.630493,997.665955 
	C693.205505,997.678955 702.781555,996.890564 713.283569,997.259155 
	C718.300171,1003.180420 721.810181,1008.943420 726.583679,1013.332214 
	C744.593262,1029.890869 763.131226,1045.873413 781.239441,1062.326904 
	C793.496826,1073.464233 805.312378,1085.086426 817.433350,1096.376099 
	C822.995422,1101.556641 828.673279,1106.636841 834.588074,1111.403442 
	C837.085327,1113.416016 840.329102,1114.502319 843.233582,1116.009644 
z"/>
<path fill="#51ABBC" opacity="1.000000" stroke="none" 
	d="
M1278.275635,1246.113037 
	C1260.360840,1272.111694 1236.129028,1290.153076 1207.254639,1302.254517 
	C1189.437500,1309.721802 1170.532104,1313.363525 1151.483765,1313.361694 
	C1131.940430,1313.359863 1112.381836,1310.415161 1094.049927,1302.766846 
	C1043.755493,1281.783325 1009.996521,1245.585693 997.838684,1192.121338 
	C985.075439,1135.994385 998.622437,1086.101318 1039.099854,1044.286865 
	C1041.645630,1041.656860 1044.336792,1039.167358 1048.161133,1036.645264 
	C1065.063721,1050.943726 1080.780151,1065.193237 1096.462891,1079.479858 
	C1111.900513,1093.543091 1127.300537,1107.647705 1142.723511,1121.727051 
	C1157.901001,1135.582153 1173.101807,1149.411621 1188.264038,1163.283325 
	C1204.407349,1178.052856 1220.583740,1192.787354 1236.620850,1207.671509 
	C1249.026733,1219.185425 1261.225830,1230.922119 1273.559448,1242.514648 
	C1274.992676,1243.861816 1276.697021,1244.920532 1278.275635,1246.113037 
z"/>
<path fill="#55B3B2" opacity="1.000000" stroke="none" 
	d="
M854.538635,402.238892 
	C850.987976,410.052216 846.503479,417.055145 840.158813,423.115265 
	C828.086304,434.646301 816.337708,446.166687 801.489258,454.577271 
	C779.049500,467.287781 755.538391,475.138794 728.875610,475.300415 
	C726.974487,472.477722 726.369141,470.114410 724.885193,468.628815 
	C721.154175,464.893799 716.949402,461.638184 713.072388,458.041779 
	C702.381836,448.124969 691.889160,437.991669 681.085754,428.200439 
	C662.206909,411.090454 643.048279,394.288574 624.212280,377.132172 
	C611.960144,365.972595 600.125732,354.355621 587.992493,343.063538 
	C583.397522,338.787048 578.673828,334.597565 573.638000,330.869385 
	C571.425659,329.231476 568.286072,328.846161 565.567444,327.892120 
	C565.130737,308.551178 566.561218,289.438538 572.516296,270.875763 
	C582.546021,239.611710 600.541138,213.925476 627.241577,194.324631 
	C628.581177,196.028366 628.868835,197.518127 629.768311,198.330490 
	C647.977478,214.776871 666.356873,231.035873 684.486877,247.568451 
	C696.511841,258.533936 708.160400,269.911041 720.052429,281.023651 
	C728.296387,288.727234 736.607971,296.360779 744.994629,303.908630 
	C763.971985,320.987885 783.115417,337.883911 801.994080,355.071075 
	C814.027771,366.026550 825.594543,377.494263 837.599487,388.482330 
	C842.955750,393.384857 848.874939,397.672272 854.538635,402.238892 
z"/>
<path fill="#51ABBD" opacity="1.000000" stroke="none" 
	d="
M587.315186,622.370300 
	C594.432312,626.830872 601.428284,631.221558 607.476379,636.665222 
	C620.317139,648.222595 632.569092,660.431030 645.238403,672.182861 
	C660.812378,686.629089 676.556519,700.892029 692.244507,715.215210 
	C707.194702,728.864929 722.094849,742.570740 737.148743,756.105286 
	C755.152039,772.291565 773.362549,788.247559 791.345459,804.456177 
	C798.753662,811.133423 805.848022,818.163269 812.952637,825.167114 
	C813.753784,825.956970 813.691040,827.623169 814.069092,829.635986 
	C794.184326,843.898193 772.305237,852.874512 748.754700,857.431702 
	C740.047241,859.116699 730.989868,859.684143 722.102051,859.607605 
	C701.495056,859.430298 681.179688,861.176086 661.038452,865.661865 
	C639.252075,870.513977 618.272888,877.557373 598.111694,887.115356 
	C595.453430,888.375549 592.545898,889.109863 588.384521,889.817627 
	C571.192932,875.211670 555.284729,860.968933 539.604553,846.479309 
	C535.288879,842.491333 531.654419,837.766296 527.707397,833.379517 
	C533.189026,821.667053 539.094971,810.131531 544.065674,798.206177 
	C555.108337,771.713562 562.568115,744.288757 564.359253,715.464844 
	C565.159485,702.588196 566.216248,689.709595 567.726868,676.899109 
	C570.015991,657.487244 576.973328,639.607056 587.315186,622.370300 
z"/>
<path fill="#54B1B5" opacity="1.000000" stroke="none" 
	d="
M1001.967407,650.657959 
	C1010.595520,650.263428 1014.891296,657.115234 1020.197327,661.594666 
	C1032.361450,671.863708 1043.423706,683.424805 1055.221313,694.144165 
	C1073.624023,710.864746 1092.295410,727.289551 1110.792847,743.906494 
	C1119.185913,751.446350 1127.470825,759.107849 1135.740601,766.783325 
	C1146.205933,776.496582 1156.512939,786.382019 1167.057861,796.007446 
	C1179.546143,807.406738 1192.344727,818.468445 1204.734131,829.972473 
	C1208.940430,833.878113 1214.867310,837.061890 1213.999146,845.144043 
	C1205.030762,848.894287 1196.231812,852.662170 1187.048462,854.682556 
	C1175.886597,857.138245 1164.366333,859.715637 1153.060791,859.472046 
	C1096.638306,858.256470 1045.057251,873.775269 996.922302,902.333374 
	C993.268982,904.500854 989.357971,906.233887 984.745728,907.517334 
	C981.643494,904.110168 979.552307,901.163391 977.028015,898.652161 
	C974.459595,896.096924 971.358643,894.086426 968.675354,891.635437 
	C959.606262,883.351624 950.686951,874.902405 941.536926,866.710083 
	C939.922546,865.264771 937.475342,864.749512 935.412720,863.804749 
	C942.235657,852.860229 949.503113,842.164734 955.800354,830.925659 
	C976.690918,793.640991 989.692810,753.959534 992.443787,710.991821 
	C993.667603,691.877625 993.480164,672.423889 1000.370300,654.040649 
	C1000.719177,653.109741 1001.173279,652.218262 1001.967407,650.657959 
z"/>
<path fill="#53AFB8" opacity="1.000000" stroke="none" 
	d="
M1278.895264,1245.813599 
	C1276.697021,1244.920532 1274.992676,1243.861816 1273.559448,1242.514648 
	C1261.225830,1230.922119 1249.026733,1219.185425 1236.620850,1207.671509 
	C1220.583740,1192.787354 1204.407349,1178.052856 1188.264038,1163.283325 
	C1173.101807,1149.411621 1157.901001,1135.582153 1142.723511,1121.727051 
	C1127.300537,1107.647705 1111.900513,1093.543091 1096.462891,1079.479858 
	C1080.780151,1065.193237 1065.063721,1050.943726 1048.781006,1036.390381 
	C1070.835571,1015.678955 1097.511963,1004.110291 1127.520508,999.706787 
	C1175.868530,992.612183 1218.659180,1005.549866 1255.303833,1037.140381 
	C1282.567139,1060.643555 1299.451660,1090.876831 1305.836670,1126.558716 
	C1311.422485,1157.773315 1308.598999,1188.243652 1295.791260,1217.323608 
	C1291.443604,1227.195190 1285.000488,1236.143799 1278.895264,1245.813599 
z"/>
<path fill="#4FA7C2" opacity="1.000000" stroke="none" 
	d="
M397.013458,837.681702 
	C392.506256,835.918762 388.027710,834.264343 384.607117,831.362732 
	C376.015686,824.074707 367.923737,816.199524 359.593384,808.601624 
	C337.305542,788.273254 314.984009,767.981873 292.704620,747.644226 
	C283.886292,739.594482 275.162354,731.441345 266.361633,723.372192 
	C259.031677,716.651550 251.653778,709.983276 244.294754,703.294312 
	C220.498077,681.664429 196.700333,660.035706 172.267441,638.105103 
	C188.108673,625.679504 207.194092,619.989258 226.873688,616.372925 
	C236.939545,614.523193 247.389053,613.525208 257.597992,613.912598 
	C294.157013,615.299988 328.601868,606.394470 363.276062,594.584656 
	C367.568665,598.647095 370.967957,602.128845 374.496521,605.474182 
	C386.294098,616.659180 398.093201,627.843323 409.980927,638.932190 
	C417.005951,645.485107 424.119659,651.949341 431.370941,658.249207 
	C433.268555,659.897827 435.828766,660.783875 438.084656,662.020142 
	C432.449036,677.955322 426.272949,693.724426 421.312988,709.867249 
	C414.954681,730.561279 412.013763,751.891113 411.675812,773.598938 
	C411.331177,795.735535 406.917053,817.054993 397.013458,837.681702 
z"/>
<path fill="#57B7AE" opacity="1.000000" stroke="none" 
	d="
M855.153381,401.929047 
	C848.874939,397.672272 842.955750,393.384857 837.599487,388.482330 
	C825.594543,377.494263 814.027771,366.026550 801.994080,355.071075 
	C783.115417,337.883911 763.971985,320.987885 744.994629,303.908630 
	C736.607971,296.360779 728.296387,288.727234 720.052429,281.023651 
	C708.160400,269.911041 696.511841,258.533936 684.486877,247.568451 
	C666.356873,231.035873 647.977478,214.776871 629.768311,198.330490 
	C628.868835,197.518127 628.581177,196.028366 627.902710,194.112610 
	C638.855286,182.823151 652.684998,176.899918 666.421570,171.175201 
	C684.999817,163.432648 704.802856,159.984375 724.781311,160.471054 
	C762.793030,161.396988 796.906006,173.533951 826.116943,198.629425 
	C855.598267,223.957260 873.393860,255.917374 879.252136,293.986023 
	C883.809692,323.601776 880.557861,352.874634 868.322327,380.565369 
	C865.044250,387.983917 860.001038,394.622528 855.153381,401.929047 
z"/>
<path fill="#4DA2C8" opacity="1.000000" stroke="none" 
	d="
M547.493469,1072.493408 
	C552.219482,1075.255493 556.610107,1078.123535 560.485657,1081.570679 
	C580.015747,1098.941528 599.426331,1116.446899 618.847290,1133.940063 
	C626.718811,1141.030273 634.590271,1148.124146 642.320251,1155.367310 
	C655.140259,1167.379761 667.659363,1179.719116 680.644470,1191.548218 
	C698.739380,1208.032104 717.281372,1224.025513 735.377197,1240.508423 
	C749.344299,1253.230713 762.919434,1266.383179 777.253601,1279.632202 
	C763.383545,1293.066528 745.632629,1300.085205 727.565979,1306.127563 
	C637.070557,1336.393433 538.340088,1272.712646 525.545044,1178.960083 
	C520.349854,1140.893066 527.196045,1105.692871 547.493469,1072.493408 
z"/>
<path fill="#51AABE" opacity="1.000000" stroke="none" 
	d="
M117.094040,240.310425 
	C123.966721,244.475372 130.801163,248.513000 136.552963,253.741623 
	C156.651291,272.011810 176.313705,290.760437 196.262833,309.196259 
	C210.846588,322.673737 225.651779,335.911255 240.301666,349.317596 
	C257.401245,364.965698 274.449707,380.669678 291.500854,396.370544 
	C308.062744,411.620972 324.616608,426.880280 341.112488,442.201874 
	C342.273376,443.280182 342.926605,444.905060 343.898071,446.932190 
	C332.264740,457.872253 317.763947,462.972900 303.496613,467.837128 
	C286.343323,473.685242 268.514160,476.370361 250.091232,475.903503 
	C210.644119,474.903870 176.492935,461.298096 147.492584,434.803040 
	C120.539520,410.178467 104.115273,379.606689 98.304543,343.612854 
	C92.442123,307.298767 98.807640,272.953918 117.094040,240.310425 
z"/>
<path fill="#4FA5C5" opacity="1.000000" stroke="none" 
	d="
M527.128662,833.773193 
	C531.654419,837.766296 535.288879,842.491333 539.604553,846.479309 
	C555.284729,860.968933 571.192932,875.211670 587.636475,889.838745 
	C580.477966,894.785522 572.793945,899.611328 564.897583,904.060181 
	C549.814453,912.558167 537.201782,924.298340 524.043884,935.251282 
	C493.025055,961.072083 468.059082,992.041382 448.423676,1027.246826 
	C434.085388,1052.954712 423.267944,1080.071289 416.900696,1109.587402 
	C413.840820,1108.649414 410.943756,1107.513916 408.747864,1105.581665 
	C400.523224,1098.344360 392.554382,1090.817505 384.441498,1083.452148 
	C363.308350,1064.266235 342.142639,1045.116211 321.004791,1025.935425 
	C313.136383,1018.795593 305.194183,1011.729553 297.551025,1004.354797 
	C295.808868,1002.673828 295.165955,999.853699 294.006744,996.829529 
	C312.012360,991.673218 330.345490,988.239197 347.979156,982.612976 
	C386.120056,970.443726 419.935638,950.144836 450.509705,924.443542 
	C481.061096,898.761353 506.504547,868.724365 527.128662,833.773193 
z"/>
<path fill="#51ABBE" opacity="1.000000" stroke="none" 
	d="
M934.869263,864.165894 
	C937.475342,864.749512 939.922546,865.264771 941.536926,866.710083 
	C950.686951,874.902405 959.606262,883.351624 968.675354,891.635437 
	C971.358643,894.086426 974.459595,896.096924 977.028015,898.652161 
	C979.552307,901.163391 981.643494,904.110168 984.009338,907.580322 
	C976.589783,914.028503 969.007996,919.663757 961.596802,925.514954 
	C942.794800,940.359497 926.646729,957.903076 911.278198,976.132263 
	C877.207642,1016.544495 854.421692,1062.555908 843.496643,1115.225098 
	C840.329102,1114.502319 837.085327,1113.416016 834.588074,1111.403442 
	C828.673279,1106.636841 822.995422,1101.556641 817.433350,1096.376099 
	C805.312378,1085.086426 793.496826,1073.464233 781.239441,1062.326904 
	C763.131226,1045.873413 744.593262,1029.890869 726.583679,1013.332214 
	C721.810181,1008.943420 718.300171,1003.180420 714.100220,997.403137 
	C806.730957,984.832886 878.572754,938.084290 934.869263,864.165894 
z"/>
<path fill="#54B0B7" opacity="1.000000" stroke="none" 
	d="
M565.082397,328.533508 
	C568.286072,328.846161 571.425659,329.231476 573.638000,330.869385 
	C578.673828,334.597565 583.397522,338.787048 587.992493,343.063538 
	C600.125732,354.355621 611.960144,365.972595 624.212280,377.132172 
	C643.048279,394.288574 662.206909,411.090454 681.085754,428.200439 
	C691.889160,437.991669 702.381836,448.124969 713.072388,458.041779 
	C716.949402,461.638184 721.154175,464.893799 724.885193,468.628815 
	C726.369141,470.114410 726.974487,472.477722 727.989868,475.170624 
	C716.065063,476.512482 704.130005,477.121399 692.195312,477.738586 
	C666.104675,479.087799 641.422180,486.408081 617.221924,495.624176 
	C594.097229,504.430573 572.581055,516.351990 550.553223,529.987427 
	C545.294861,527.544495 541.104431,525.477783 537.687012,522.518494 
	C531.926331,517.530151 526.655396,511.976196 521.179321,506.659210 
	C514.796204,500.461456 508.413971,494.262726 502.031342,488.064453 
	C514.968567,469.175598 527.777710,450.241272 537.560303,429.406036 
	C552.511292,397.563080 562.405640,364.425720 565.082397,328.533508 
z"/>
<path fill="#52ACBD" opacity="1.000000" stroke="none" 
	d="
M501.447327,488.377716 
	C508.413971,494.262726 514.796204,500.461456 521.179321,506.659210 
	C526.655396,511.976196 531.926331,517.530151 537.687012,522.518494 
	C541.104431,525.477783 545.294861,527.544495 549.893921,530.125854 
	C528.977905,546.617798 508.500458,564.375977 490.335022,584.590088 
	C469.631470,607.628540 452.776184,633.346069 438.612915,661.592041 
	C435.828766,660.783875 433.268555,659.897827 431.370941,658.249207 
	C424.119659,651.949341 417.005951,645.485107 409.980927,638.932190 
	C398.093201,627.843323 386.294098,616.659180 374.496521,605.474182 
	C370.967957,602.128845 367.568665,598.647095 364.031433,594.522949 
	C376.087891,587.702881 388.465637,582.021362 400.313873,575.393311 
	C439.702972,553.358337 473.101227,524.265442 501.447327,488.377716 
z"/>
</svg>